# xmcd
#
# Track frame offsets:
#	151
#	25700
#	42767
#	55891
#	78004
#	114366
#	146021
#	178225
#	202352
#	242851
#
# Disc length: 3530 seconds
#
# Revision: 1
# Processed by: cddbd v1.5.1PL2 Copyright (c) Steve Scherf et al.
# Submitted via: CDmax 2.0
#
DISCID=870dc80a
DTITLE=Eric Clapton - Japan Tour 1997 Two Days In Osaka (disc3)
DYEAR=1997
DGENRE=Blues
TTITLE0=Layla
TTITLE1=Change the World
TTITLE2=Nobody Knows You When You are Down and out
TTITLE3=Tears in Heaven
TTITLE4=Going Down Slow
TTITLE5=Broken Hearted
TTITLE6=Pilgrim
TTITLE7=Before You Accuse Me
TTITLE8=I shot the Sheriff
TTITLE9=Wonderful Tonight
EXTD=Eric Clapton\t\tguitar, vocals\nAndy Fairweather-Low\tguitar\nJoe Sample
EXTD=\t\tkeyboards\nChris Stainton\t\tkeyboards\nSteve Gadd\t\tdrums\nDave Br
EXTD=onze\t\tbass\nTessa Niles\t\tbackground vocals\nKatie Kissoon\t\tbackgro
EXTD=und vocals\n\nRecorded live at Osaka Castle Hall, Osaka, Japan on Octobe
EXTD=r 22nd, 1997
EXTT0=
EXTT1=
EXTT2=
EXTT3=
EXTT4=
EXTT5=
EXTT6=
EXTT7=
EXTT8=
EXTT9=
PLAYORDER=
